<svg width="17" height="18" viewBox="0 0 17 18" fill="none" xmlns="http://www.w3.org/2000/svg">
<path d="M6.1362 3.02329C6.61684 1.61673 8.56031 1.57413 9.13017 2.8955L9.17839 3.0241L9.82702 4.92095C9.97566 5.35597 10.2159 5.75405 10.5314 6.08834C10.847 6.42263 11.2306 6.68536 11.6564 6.8588L11.8308 6.92391L13.7276 7.57173C15.1342 8.05238 15.1768 9.99585 13.8562 10.5657L13.7276 10.6139L11.8308 11.2626C11.3956 11.4111 10.9974 11.6513 10.6629 11.9669C10.3285 12.2824 10.0656 12.6661 9.89212 13.0919L9.82702 13.2655L9.17919 15.1632C8.69855 16.5697 6.75508 16.6123 6.18603 15.2918L6.1362 15.1632L5.48837 13.2663C5.33983 12.8312 5.09966 12.4329 4.78408 12.0985C4.4685 11.764 4.08486 11.5012 3.65904 11.3277L3.48543 11.2626L1.58858 10.6147C0.181215 10.1341 0.138616 8.19062 1.45998 7.62156L1.58858 7.57173L3.48543 6.92391C3.92045 6.77526 4.31853 6.53505 4.65282 6.21947C4.9871 5.9039 5.24983 5.5203 5.42327 5.09456L5.48837 4.92095L6.1362 3.02329ZM7.6577 3.54252L7.00987 5.43937C6.78353 6.10271 6.41531 6.70874 5.93087 7.21526C5.44642 7.72178 4.85739 8.11661 4.20479 8.37227L4.00385 8.44541L2.107 9.09324L4.00385 9.74106C4.66719 9.9674 5.27321 10.3356 5.77973 10.8201C6.28625 11.3045 6.68108 11.8936 6.93673 12.5462L7.00987 12.7471L7.6577 14.644L8.30552 12.7471C8.53186 12.0838 8.90008 11.4777 9.38452 10.9712C9.86897 10.4647 10.458 10.0699 11.1106 9.8142L11.3115 9.74186L13.2084 9.09324L11.3115 8.44541C10.6482 8.21907 10.0422 7.85085 9.53566 7.3664C9.02914 6.88195 8.63431 6.29292 8.37866 5.64031L8.30632 5.43937L7.6577 3.54252ZM14.0877 0.251953C14.2381 0.251953 14.3854 0.294133 14.513 0.373699C14.6406 0.453265 14.7433 0.567026 14.8095 0.702055L14.848 0.796094L15.1294 1.62074L15.9548 1.90206C16.1055 1.95325 16.2376 2.04803 16.3344 2.17438C16.4311 2.30073 16.4882 2.45296 16.4984 2.61179C16.5085 2.77061 16.4713 2.92888 16.3914 3.06652C16.3115 3.20417 16.1926 3.31501 16.0496 3.38498L15.9548 3.42356L15.1302 3.70488L14.8488 4.53033C14.7976 4.68098 14.7027 4.81301 14.5763 4.9097C14.4499 5.00638 14.2977 5.06337 14.1388 5.07344C13.98 5.08351 13.8218 5.04621 13.6842 4.96627C13.5466 4.88632 13.4358 4.76733 13.3659 4.62437L13.3273 4.53033L13.046 3.70568L12.2206 3.42437C12.0699 3.37317 11.9378 3.27839 11.841 3.15204C11.7443 3.02569 11.6872 2.87346 11.677 2.71464C11.6669 2.55581 11.7041 2.39755 11.784 2.2599C11.8639 2.12225 11.9828 2.01142 12.1257 1.94144L12.2206 1.90286L13.0452 1.62155L13.3265 0.796094C13.3807 0.637293 13.4833 0.499436 13.6198 0.401852C13.7563 0.304269 13.9199 0.251852 14.0877 0.251953Z" fill="#0D0F11"/>
</svg>
