<svg width="17" height="16" viewBox="0 0 17 16" fill="none" xmlns="http://www.w3.org/2000/svg">
<path d="M1.78626 14.7142L6.65958 9.84087M12.7964 7.67377L11.3376 12.0501C11.3143 12.1202 11.2745 12.1837 11.2214 12.2352C11.1684 12.2867 11.1037 12.3246 11.0329 12.3457L2.09027 15.0036C2.0097 15.0276 1.92412 15.0289 1.84283 15.0076C1.76154 14.9863 1.68765 14.943 1.62922 14.8826C1.57079 14.8222 1.53004 14.747 1.51142 14.665C1.4928 14.583 1.49701 14.4976 1.5236 14.4178L4.42738 5.70806C4.44819 5.64553 4.48221 5.5882 4.52713 5.53997C4.57206 5.49175 4.62683 5.45375 4.68774 5.42856L8.81291 3.73011C8.89677 3.69547 8.98901 3.68644 9.078 3.70416C9.16699 3.72187 9.24874 3.76554 9.31295 3.82965L12.6854 7.2036C12.7457 7.26393 12.7881 7.33987 12.8077 7.42291C12.8273 7.50596 12.8234 7.59282 12.7964 7.67377Z" stroke="#0D0F11" stroke-width="1.3" stroke-linecap="round" stroke-linejoin="round"/>
<path d="M12.8861 7.40564L15.0517 5.23931C15.3388 4.9521 15.5001 4.56263 15.5001 4.15652C15.5001 3.75042 15.3388 3.36094 15.0517 3.07374L13.4283 1.44879C13.286 1.30651 13.1172 1.19364 12.9313 1.11664C12.7455 1.03963 12.5463 1 12.3451 1C12.1439 1 11.9447 1.03963 11.7589 1.11664C11.573 1.19364 11.4041 1.30651 11.2619 1.44879L9.09634 3.61513M8.2831 8.21735C8.1764 8.1107 8.04975 8.02612 7.91036 7.96842C7.77098 7.91073 7.62159 7.88105 7.47074 7.88108C7.31988 7.88112 7.17051 7.91087 7.03115 7.96863C6.8918 8.02639 6.76518 8.11104 6.65853 8.21773C6.55189 8.32443 6.4673 8.45108 6.4096 8.59047C6.35191 8.72985 6.32223 8.87924 6.32227 9.03009C6.3223 9.18095 6.35205 9.33032 6.40981 9.46967C6.46757 9.60903 6.55222 9.73565 6.65892 9.84229C6.8744 10.0577 7.16661 10.1786 7.47128 10.1786C7.77594 10.1785 8.0681 10.0574 8.28348 9.84191C8.49886 9.62643 8.61982 9.33422 8.61975 9.02955C8.61968 8.72489 8.49858 8.43273 8.2831 8.21735Z" stroke="#0D0F11" stroke-width="1.3" stroke-linecap="round" stroke-linejoin="round"/>
</svg>
