<svg width="28" height="28" viewBox="0 0 28 28" fill="none" xmlns="http://www.w3.org/2000/svg">
<path d="M8.4013 0.666992H19.6013C23.868 0.666992 27.3346 4.13366 27.3346 8.40033V19.6003C27.3346 21.6513 26.5199 23.6183 25.0696 25.0686C23.6193 26.5189 21.6523 27.3337 19.6013 27.3337H8.4013C4.13464 27.3337 0.667969 23.867 0.667969 19.6003V8.40033C0.667969 6.34932 1.48273 4.38231 2.93301 2.93203C4.38329 1.48175 6.3503 0.666992 8.4013 0.666992ZM8.13464 3.33366C6.8616 3.33366 5.6407 3.83937 4.74052 4.73955C3.84035 5.63972 3.33464 6.86062 3.33464 8.13366V19.867C3.33464 22.5203 5.4813 24.667 8.13464 24.667H19.868C21.141 24.667 22.3619 24.1613 23.2621 23.2611C24.1623 22.3609 24.668 21.14 24.668 19.867V8.13366C24.668 5.48033 22.5213 3.33366 19.868 3.33366H8.13464ZM21.0013 5.33366C21.4433 5.33366 21.8673 5.50925 22.1798 5.82182C22.4924 6.13438 22.668 6.5583 22.668 7.00033C22.668 7.44235 22.4924 7.86628 22.1798 8.17884C21.8673 8.4914 21.4433 8.66699 21.0013 8.66699C20.5593 8.66699 20.1354 8.4914 19.8228 8.17884C19.5102 7.86628 19.3346 7.44235 19.3346 7.00033C19.3346 6.5583 19.5102 6.13438 19.8228 5.82182C20.1354 5.50925 20.5593 5.33366 21.0013 5.33366ZM14.0013 7.33366C15.7694 7.33366 17.4651 8.03604 18.7153 9.28628C19.9656 10.5365 20.668 12.2322 20.668 14.0003C20.668 15.7684 19.9656 17.4641 18.7153 18.7144C17.4651 19.9646 15.7694 20.667 14.0013 20.667C12.2332 20.667 10.5375 19.9646 9.28726 18.7144C8.03702 17.4641 7.33464 15.7684 7.33464 14.0003C7.33464 12.2322 8.03702 10.5365 9.28726 9.28628C10.5375 8.03604 12.2332 7.33366 14.0013 7.33366ZM14.0013 10.0003C12.9404 10.0003 11.923 10.4218 11.1729 11.1719C10.4227 11.922 10.0013 12.9395 10.0013 14.0003C10.0013 15.0612 10.4227 16.0786 11.1729 16.8288C11.923 17.5789 12.9404 18.0003 14.0013 18.0003C15.0622 18.0003 16.0796 17.5789 16.8297 16.8288C17.5799 16.0786 18.0013 15.0612 18.0013 14.0003C18.0013 12.9395 17.5799 11.922 16.8297 11.1719C16.0796 10.4218 15.0622 10.0003 14.0013 10.0003Z" fill="#313131"/>
</svg>
