<svg width="18" height="16" viewBox="0 0 18 16" fill="none" xmlns="http://www.w3.org/2000/svg">
<path fill-rule="evenodd" clip-rule="evenodd" d="M0 5.71429C0 5.41118 0.118526 5.12049 0.329505 4.90616C0.540483 4.69184 0.826631 4.57143 1.125 4.57143H12.7215C13.0199 4.57143 13.306 4.69184 13.517 4.90616C13.728 5.12049 13.8465 5.41118 13.8465 5.71429C13.8465 6.01739 13.728 6.30808 13.517 6.52241C13.306 6.73674 13.0199 6.85714 12.7215 6.85714H1.125C0.826631 6.85714 0.540483 6.73674 0.329505 6.52241C0.118526 6.30808 0 6.01739 0 5.71429ZM0 1.14286C0 0.839753 0.118526 0.549062 0.329505 0.334735C0.540483 0.120408 0.826631 0 1.125 0H16.875C17.1734 0 17.4595 0.120408 17.6705 0.334735C17.8815 0.549062 18 0.839753 18 1.14286C18 1.44596 17.8815 1.73665 17.6705 1.95098C17.4595 2.16531 17.1734 2.28571 16.875 2.28571H1.125C0.826631 2.28571 0.540483 2.16531 0.329505 1.95098C0.118526 1.73665 0 1.44596 0 1.14286ZM0 10.2857C0 9.98261 0.118526 9.69192 0.329505 9.47759C0.540483 9.26327 0.826631 9.14286 1.125 9.14286H16.875C17.1734 9.14286 17.4595 9.26327 17.6705 9.47759C17.8815 9.69192 18 9.98261 18 10.2857C18 10.5888 17.8815 10.8795 17.6705 11.0938C17.4595 11.3082 17.1734 11.4286 16.875 11.4286H1.125C0.826631 11.4286 0.540483 11.3082 0.329505 11.0938C0.118526 10.8795 0 10.5888 0 10.2857ZM0 14.8571C0 14.554 0.118526 14.2633 0.329505 14.049C0.540483 13.8347 0.826631 13.7143 1.125 13.7143H12.7215C13.0199 13.7143 13.306 13.8347 13.517 14.049C13.728 14.2633 13.8465 14.554 13.8465 14.8571C13.8465 15.1602 13.728 15.4509 13.517 15.6653C13.306 15.8796 13.0199 16 12.7215 16H1.125C0.826631 16 0.540483 15.8796 0.329505 15.6653C0.118526 15.4509 0 15.1602 0 14.8571Z" fill="black"/>
</svg>
