<svg width="18" height="17" viewBox="0 0 18 17" fill="none" xmlns="http://www.w3.org/2000/svg">
<path d="M15.25 1.125H2.75C2.41848 1.125 2.10054 1.2567 1.86612 1.49112C1.6317 1.72554 1.5 2.04348 1.5 2.375V14.875C1.5 15.2065 1.6317 15.5245 1.86612 15.7589C2.10054 15.9933 2.41848 16.125 2.75 16.125H15.25C15.5815 16.125 15.8995 15.9933 16.1339 15.7589C16.3683 15.5245 16.5 15.2065 16.5 14.875V2.375C16.5 2.04348 16.3683 1.72554 16.1339 1.49112C15.8995 1.2567 15.5815 1.125 15.25 1.125Z" stroke="#0D0F11" stroke-width="1.4" stroke-linecap="round" stroke-linejoin="round"/>
<path d="M7.54297 10.2915V7.76562L9.73047 9.02813L11.918 10.2915L9.73047 11.5544L7.54297 12.8173V10.2915Z" fill="#0D0F11" stroke="#0D0F11" stroke-width="1.4" stroke-linecap="round" stroke-linejoin="round"/>
<path d="M1.5 4.875H16.5M12.75 1.125L10.25 4.875M7.75 1.125L5.25 4.875" stroke="#0D0F11" stroke-width="1.4" stroke-linecap="round" stroke-linejoin="round"/>
</svg>
